# xmcd
#
# Track frame offsets:
#  150
#  15850
#  38141
#  60336
#  80213
#  106951
#  129369
#  153470
#  185085
#  208930
#  231693
#  250403
#
# Disc length: 3580 seconds
#
# Revision: 0
# Processed by: cddbd v1.5.1PL2 Copyright (c) Steve Scherf et al.
# Submitted via: Collectorz.com_Music_Collector 6.11
#
DISCID=a40dfa0c
DTITLE=James, Etta - Life, Love and The Blues
DYEAR=1998
DGENRE=Blues
TTITLE0=Born Under A Bad Sign
TTITLE1=Cheating In The Next Room
TTITLE2=Here I Am (Come And Take Me)
TTITLE3=Hoochie Coochie Gal
TTITLE4=I Want To Ta Ta You, Baby
TTITLE5=I'll Take Care Of You
TTITLE6=If You Want Me To Stay
TTITLE7=Inner City Blues (Make Me Wanna Holler)
TTITLE8=Life, Love The Blues
TTITLE9=Running Out Of Lies
TTITLE10=Spoonful
TTITLE11=The Love You Save May Be Your Own
EXTD=
EXTT0=
EXTT1=
EXTT2=
EXTT3=
EXTT4=
EXTT5=
EXTT6=
EXTT7=
EXTT8=
EXTT9=
EXTT10=
EXTT11=
PLAYORDER=
